<svg width="12" height="12" viewBox="0 0 12 12" fill="none" xmlns="http://www.w3.org/2000/svg">
<path fill-rule="evenodd" clip-rule="evenodd" d="M2.568 1.78625C2.65997 1.76498 2.75676 1.75379 2.85716 1.754L10.7546 2.30943C11.4622 2.32173 12.1545 2.89951 11.8128 3.6502C11.7462 3.79637 11.4457 4.39165 10.9679 5.32832C10.7728 5.7107 10.5726 6.10211 10.3724 6.49284C10.259 6.71419 10.259 6.71419 10.1789 6.87032C10.1422 6.94176 10.1279 6.96961 10.1193 6.98638C9.95686 7.3978 9.61372 7.7156 9.18507 7.84953L9.10162 7.8756H3.4037L3.39561 7.87519L2.27956 7.87492C1.95831 7.89061 1.70146 8.14351 1.68621 8.43224L1.6852 8.95554C1.70461 9.2741 1.96323 9.52847 2.25155 9.54551H2.34805C2.58088 8.89692 3.2091 8.43224 3.94755 8.43224C4.686 8.43224 5.31422 8.89692 5.54705 9.54551H6.87073C7.10356 8.89692 7.73178 8.43224 8.47023 8.43224C9.40691 8.43224 10.1662 9.17988 10.1662 10.1021C10.1662 11.0244 9.40691 11.7721 8.47023 11.7721C7.73178 11.7721 7.10356 11.3074 6.87073 10.6588H5.54705C5.31422 11.3074 4.686 11.7721 3.94755 11.7721C3.20883 11.7721 2.58042 11.307 2.3478 10.6581L2.21946 10.6579C1.32595 10.6079 0.610278 9.90395 0.555542 8.98887L0.556237 8.40465C0.60088 7.5187 1.31895 6.80996 2.24585 6.76261L1.69189 2.94458L1.68621 2.86586C1.68621 2.50575 1.50014 2.07826 1.28646 1.86787C1.23106 1.81332 0.984319 1.75259 0.555542 1.75259V0.639313C1.25743 0.639313 1.76447 0.764122 2.08596 1.08067C2.27538 1.26717 2.44192 1.51264 2.568 1.78625ZM3.44603 6.76232H8.90521C8.98063 6.72189 9.03926 6.65531 9.06879 6.5743L9.09637 6.51119C9.10966 6.4853 9.10966 6.4853 9.16963 6.36842C9.2496 6.2125 9.2496 6.2125 9.3629 5.99142C9.56282 5.60121 9.76274 5.21034 9.94931 4.84467L9.95749 4.82862C10.2843 4.18797 10.534 3.69543 10.6713 3.41967L2.82268 2.86627L3.37665 6.6844C3.38206 6.72211 3.40973 6.75239 3.44603 6.76232ZM8.47023 10.6588C8.78245 10.6588 9.03556 10.4096 9.03556 10.1021C9.03556 9.79473 8.78245 9.54551 8.47023 9.54551C8.158 9.54551 7.90489 9.79473 7.90489 10.1021C7.90489 10.4096 8.158 10.6588 8.47023 10.6588ZM3.94755 10.6588C4.25978 10.6588 4.51289 10.4096 4.51289 10.1021C4.51289 9.79473 4.25978 9.54551 3.94755 9.54551C3.63532 9.54551 3.38222 9.79473 3.38222 10.1021C3.38222 10.4096 3.63532 10.6588 3.94755 10.6588Z" fill="white"/>
</svg>
