<svg width="13" height="13" viewBox="0 0 13 13" fill="none" xmlns="http://www.w3.org/2000/svg">
<path fill-rule="evenodd" clip-rule="evenodd" d="M8.87352 3.79171L9.87147 5.78761L11.375 6.78993V8.66671H10.7408C10.5177 8.03556 9.91583 7.58337 9.20829 7.58337C8.50076 7.58337 7.89884 8.03556 7.67576 8.66671H5.32416C5.10108 8.03556 4.49916 7.58337 3.79163 7.58337C3.08409 7.58337 2.48217 8.03556 2.25909 8.66671H1.62496V3.79171H8.87352ZM11.375 9.75004H10.7408C10.5177 10.3812 9.91583 10.8334 9.20829 10.8334C8.50076 10.8334 7.89884 10.3812 7.67576 9.75004H5.32416C5.10108 10.3812 4.49916 10.8334 3.79163 10.8334C3.08409 10.8334 2.48217 10.3812 2.25909 9.75004H1.62496C1.02665 9.75004 0.541626 9.26502 0.541626 8.66671V3.79171C0.541626 3.1934 1.02665 2.70837 1.62496 2.70837H8.87352C9.28386 2.70837 9.65898 2.94021 9.84249 3.30723L10.7118 5.04581L12.4583 6.21015V8.66671C12.4583 9.26502 11.9733 9.75004 11.375 9.75004ZM4.33329 9.20837C4.33329 9.50753 4.09078 9.75004 3.79163 9.75004C3.49247 9.75004 3.24996 9.50753 3.24996 9.20837C3.24996 8.90922 3.49247 8.66671 3.79163 8.66671C4.09078 8.66671 4.33329 8.90922 4.33329 9.20837ZM9.74996 9.20837C9.74996 9.50753 9.50745 9.75004 9.20829 9.75004C8.90914 9.75004 8.66663 9.50753 8.66663 9.20837C8.66663 8.90922 8.90914 8.66671 9.20829 8.66671C9.50745 8.66671 9.74996 8.90922 9.74996 9.20837Z" fill="black"/>
</svg>
