<svg width="10" height="10" viewBox="0 0 10 10" fill="none" xmlns="http://www.w3.org/2000/svg">
<path fill-rule="evenodd" clip-rule="evenodd" d="M7.18301 6.28649L9.63192 8.57033L8.98905 9.16986L6.54015 6.88603C5.92435 7.33245 5.15055 7.59829 4.31017 7.59829C2.30174 7.59829 0.673584 6.07988 0.673584 4.20683C0.673584 2.33378 2.30174 0.815369 4.31017 0.815369C6.31861 0.815369 7.94676 2.33378 7.94676 4.20683C7.94676 4.99056 7.66171 5.7122 7.18301 6.28649ZM4.31017 6.75043C5.8165 6.75043 7.03762 5.61162 7.03762 4.20683C7.03762 2.80204 5.8165 1.66323 4.31017 1.66323C2.80385 1.66323 1.58273 2.80204 1.58273 4.20683C1.58273 5.61162 2.80385 6.75043 4.31017 6.75043Z" fill="#787777"/>
</svg>
