<svg width="17" height="15" viewBox="0 0 17 15" fill="none" xmlns="http://www.w3.org/2000/svg">
<path fill-rule="evenodd" clip-rule="evenodd" d="M3.39732 1.20056H13.5378C14.2379 1.20056 14.8054 1.73808 14.8054 2.40115V12.0059C14.8054 12.6689 14.2379 13.2065 13.5378 13.2065H3.39732C2.69727 13.2065 2.12976 12.6689 2.12976 12.0059V2.40115C2.12976 1.73808 2.69727 1.20056 3.39732 1.20056ZM3.39732 2.40115V12.0059H13.5378V2.40115H3.39732ZM7.91811 7.20615H9.10134V10.8053H10.3689V7.20615H11.6253V6.00556H10.3689V5.40263C10.3689 5.07109 10.6527 4.80233 11.0027 4.80233H11.6365V3.60174H11.0027C9.9526 3.60174 9.10134 4.40802 9.10134 5.40263V6.00556H7.91811V7.20615Z" fill="black"/>
</svg>
