<svg width="13" height="13" viewBox="0 0 13 13" fill="none" xmlns="http://www.w3.org/2000/svg">
<path fill-rule="evenodd" clip-rule="evenodd" d="M3.79163 3.79171V5.41671H3.24996C2.67127 5.41671 2.16663 5.83724 2.16663 6.40976V10.9237C2.16663 11.4962 2.67127 11.9167 3.24996 11.9167H9.74996C10.3286 11.9167 10.8333 11.4962 10.8333 10.9237V6.40976C10.8333 5.83724 10.3286 5.41671 9.74996 5.41671H9.20829V3.79171C9.20829 2.29594 7.99573 1.08337 6.49996 1.08337C5.00419 1.08337 3.79163 2.29594 3.79163 3.79171ZM8.12496 3.79171V5.41671H4.87496V3.79171C4.87496 2.89424 5.6025 2.16671 6.49996 2.16671C7.39742 2.16671 8.12496 2.89424 8.12496 3.79171ZM3.24996 10.8334V6.50004H9.74996V10.8334H3.24996ZM7.04163 8.66671C7.04163 8.96586 6.79911 9.20837 6.49996 9.20837C6.20081 9.20837 5.95829 8.96586 5.95829 8.66671C5.95829 8.36755 6.20081 8.12504 6.49996 8.12504C6.79911 8.12504 7.04163 8.36755 7.04163 8.66671Z" fill="black"/>
</svg>
