<svg width="14" height="13" viewBox="0 0 14 13" fill="none" xmlns="http://www.w3.org/2000/svg">
<path d="M7.00008 11.8462C5.45299 11.8462 3.96925 11.2789 2.87529 10.269C1.78133 9.25924 1.16675 7.88964 1.16675 6.46155C1.16675 5.03346 1.78133 3.66386 2.87529 2.65405C3.96925 1.64424 5.45299 1.07693 7.00008 1.07693C8.54718 1.07693 10.0309 1.64424 11.1249 2.65405C12.2188 3.66386 12.8334 5.03346 12.8334 6.46155C12.8334 7.88964 12.2188 9.25924 11.1249 10.269C10.0309 11.2789 8.54718 11.8462 7.00008 11.8462ZM7.00008 10.7692C8.23776 10.7692 9.42474 10.3154 10.2999 9.50755C11.1751 8.6997 11.6667 7.60402 11.6667 6.46155C11.6667 5.31908 11.1751 4.2234 10.2999 3.41555C9.42474 2.6077 8.23776 2.15386 7.00008 2.15386C5.7624 2.15386 4.57542 2.6077 3.70025 3.41555C2.82508 4.2234 2.33341 5.31908 2.33341 6.46155C2.33341 7.60402 2.82508 8.6997 3.70025 9.50755C4.57542 10.3154 5.7624 10.7692 7.00008 10.7692ZM9.91675 5.92309V7.00001H4.08342V5.92309H9.91675Z" fill="#7D7979"/>
</svg>
