<svg width="10" height="10" viewBox="0 0 10 10" fill="none" xmlns="http://www.w3.org/2000/svg">
<path d="M8.33333 9.22318C7.87037 9.22318 7.47685 9.0919 7.15278 8.82934C6.8287 8.56678 6.66667 8.24795 6.66667 7.87286C6.66667 7.82035 6.6713 7.76589 6.68056 7.70947C6.68982 7.65306 6.7037 7.6025 6.72222 7.55779L2.80556 5.71235C2.64815 5.82487 2.47222 5.9131 2.27778 5.97701C2.08333 6.04093 1.87963 6.07273 1.66667 6.07243C1.2037 6.07243 0.810185 5.94115 0.486111 5.67859C0.162037 5.41603 0 5.0972 0 4.72211C0 4.34702 0.162037 4.0282 0.486111 3.76563C0.810185 3.50307 1.2037 3.37179 1.66667 3.37179C1.87963 3.37179 2.08333 3.40375 2.27778 3.46766C2.47222 3.53158 2.64815 3.61965 2.80556 3.73188L6.72222 1.88644C6.7037 1.84142 6.68982 1.79086 6.68056 1.73475C6.6713 1.67864 6.66667 1.62417 6.66667 1.57136C6.66667 1.19627 6.8287 0.877445 7.15278 0.614883C7.47685 0.35232 7.87037 0.221039 8.33333 0.221039C8.7963 0.221039 9.18982 0.35232 9.51389 0.614883C9.83796 0.877445 10 1.19627 10 1.57136C10 1.94645 9.83796 2.26528 9.51389 2.52784C9.18982 2.7904 8.7963 2.92168 8.33333 2.92168C8.12037 2.92168 7.91667 2.88987 7.72222 2.82626C7.52778 2.76264 7.35185 2.67442 7.19444 2.5616L3.27778 4.40704C3.2963 4.45205 3.31019 4.50276 3.31944 4.55917C3.3287 4.61559 3.33333 4.6699 3.33333 4.72211C3.33333 4.77462 3.3287 4.82909 3.31944 4.8855C3.31019 4.94191 3.2963 4.99248 3.27778 5.03719L7.19444 6.88263C7.35185 6.7701 7.52778 6.68203 7.72222 6.61841C7.91667 6.5548 8.12037 6.52284 8.33333 6.52254C8.7963 6.52254 9.18982 6.65382 9.51389 6.91638C9.83796 7.17895 10 7.49777 10 7.87286C10 8.24795 9.83796 8.56678 9.51389 8.82934C9.18982 9.0919 8.7963 9.22318 8.33333 9.22318ZM8.33333 2.02147C8.49074 2.02147 8.62278 1.97841 8.72944 1.89229C8.83611 1.80617 8.88926 1.69919 8.88889 1.57136C8.88889 1.44383 8.83556 1.337 8.72889 1.25088C8.62222 1.16476 8.49037 1.12155 8.33333 1.12125C8.17593 1.12125 8.04407 1.16446 7.93778 1.25088C7.83148 1.3373 7.77815 1.44413 7.77778 1.57136C7.77778 1.69889 7.83111 1.80587 7.93778 1.89229C8.04445 1.97871 8.1763 2.02177 8.33333 2.02147ZM1.66667 5.17222C1.82407 5.17222 1.95611 5.12901 2.06278 5.04259C2.16944 4.95617 2.22259 4.84934 2.22222 4.72211C2.22222 4.59458 2.16889 4.48776 2.06222 4.40164C1.95556 4.31551 1.8237 4.2723 1.66667 4.272C1.50926 4.272 1.37741 4.31521 1.27111 4.40164C1.16481 4.48806 1.11148 4.59488 1.11111 4.72211C1.11111 4.84964 1.16444 4.95662 1.27111 5.04304C1.37778 5.12946 1.50963 5.17252 1.66667 5.17222ZM8.33333 8.32297C8.49074 8.32297 8.62278 8.27976 8.72944 8.19334C8.83611 8.10692 8.88926 8.00009 8.88889 7.87286C8.88889 7.74533 8.83556 7.63851 8.72889 7.55239C8.62222 7.46627 8.49037 7.42306 8.33333 7.42276C8.17593 7.42276 8.04407 7.46597 7.93778 7.55239C7.83148 7.63881 7.77815 7.74563 7.77778 7.87286C7.77778 8.00039 7.83111 8.10737 7.93778 8.19379C8.04445 8.28021 8.1763 8.32327 8.33333 8.32297Z" fill="black"/>
</svg>
