<svg width="13" height="12" viewBox="0 0 13 12" fill="none" xmlns="http://www.w3.org/2000/svg">
<path fill-rule="evenodd" clip-rule="evenodd" d="M3.38888 9.64841C4.20793 10.3627 5.28522 10.7963 6.46536 10.7963C7.6455 10.7963 8.72279 10.3627 9.54184 9.64841C9.39088 9.11395 8.30639 8.76488 6.46536 8.76488C4.62433 8.76488 3.53984 9.11395 3.38888 9.64841ZM2.64883 8.82818C3.22931 8.07322 4.59338 7.74918 6.46536 7.74918C8.33734 7.74918 9.70141 8.07322 10.2819 8.82818C10.8024 8.0896 11.1074 7.19269 11.1074 6.22564C11.1074 3.70135 9.02909 1.65501 6.46536 1.65501C3.90163 1.65501 1.82331 3.70135 1.82331 6.22564C1.82331 7.19269 2.12834 8.0896 2.64883 8.82818ZM6.46536 11.812C3.33191 11.812 0.791748 9.31088 0.791748 6.22564C0.791748 3.1404 3.33191 0.639313 6.46536 0.639313C9.59881 0.639313 12.139 3.1404 12.139 6.22564C12.139 9.31088 9.59881 11.812 6.46536 11.812ZM4.40223 5.20994C4.40223 4.07021 5.2167 3.17855 6.46536 3.17855C7.71056 3.17855 8.52849 4.15442 8.52849 5.31151C8.52849 6.97706 7.60941 7.74918 6.46536 7.74918C5.31045 7.74918 4.40223 6.95053 4.40223 5.20994ZM5.43379 5.20994C5.43379 6.36238 5.85581 6.73349 6.46536 6.73349C7.0728 6.73349 7.49692 6.37718 7.49692 5.31151C7.49692 4.67691 7.09237 4.19425 6.46536 4.19425C5.81224 4.19425 5.43379 4.60856 5.43379 5.20994Z" fill="white"/>
</svg>
