<svg width="13" height="13" viewBox="0 0 13 13" fill="none" xmlns="http://www.w3.org/2000/svg">
<path fill-rule="evenodd" clip-rule="evenodd" d="M8.36909 0.759735C8.94438 0.595367 9.54399 0.928483 9.70836 1.50377C9.73601 1.60056 9.75004 1.70073 9.75004 1.80139V2.70828H10.8334C11.4317 2.70828 11.9167 3.19331 11.9167 3.79162V10.2916C11.9167 10.8899 11.4317 11.3749 10.8334 11.3749H2.16671C1.5684 11.3749 1.08337 10.8899 1.08337 10.2916H1.09784C1.08822 10.2334 1.08337 10.1744 1.08337 10.1152V3.65853C1.08337 3.17484 1.40402 2.74976 1.86909 2.61688L8.36909 0.759735ZM5.49257 10.2916H10.8334V5.95828H9.75004V8.25803C9.75004 8.74172 9.4294 9.16681 8.96432 9.29969L5.49257 10.2916ZM9.75004 3.79162H10.8334V4.87495H9.75004V3.79162ZM2.16671 3.65851V10.1152L8.66671 8.25802V1.80137L2.16671 3.65851ZM7.58337 4.87495C7.58337 5.1741 7.34086 5.41662 7.04171 5.41662C6.74255 5.41662 6.50004 5.1741 6.50004 4.87495C6.50004 4.57579 6.74255 4.33328 7.04171 4.33328C7.34086 4.33328 7.58337 4.57579 7.58337 4.87495Z" fill="black"/>
</svg>
