<svg width="14" height="13" viewBox="0 0 14 13" fill="none" xmlns="http://www.w3.org/2000/svg">
<path d="M7.00008 2.16668C9.57316 2.16668 11.6667 4.11072 11.6667 6.50001C11.6667 8.8893 9.57316 10.8333 7.00008 10.8333C4.427 10.8333 2.33341 8.8893 2.33341 6.50001C2.33341 4.11072 4.427 2.16668 7.00008 2.16668ZM7.00008 1.08334C3.77833 1.08334 1.16675 3.50839 1.16675 6.50001C1.16675 9.49163 3.77833 11.9167 7.00008 11.9167C10.2218 11.9167 12.8334 9.49163 12.8334 6.50001C12.8334 3.50839 10.2218 1.08334 7.00008 1.08334ZM9.91675 5.95834H7.58341V3.79168H6.41675V5.95834H4.08341V7.04168H6.41675V9.20834H7.58341V7.04168H9.91675V5.95834Z" fill="#7D7979"/>
</svg>
