<svg width="16" height="15" viewBox="0 0 16 15" fill="none" xmlns="http://www.w3.org/2000/svg">
<path fill-rule="evenodd" clip-rule="evenodd" d="M10.1405 1.20056H5.07026C2.9701 1.20056 1.26758 2.81313 1.26758 4.80233V9.60469C1.26758 11.5939 2.9701 13.2065 5.07026 13.2065H10.1405C12.2407 13.2065 13.9432 11.5939 13.9432 9.60469V4.80233C13.9432 2.81313 12.2407 1.20056 10.1405 1.20056ZM2.53514 4.80233C2.53514 3.4762 3.67015 2.40115 5.07026 2.40115H10.1405C11.5406 2.40115 12.6756 3.4762 12.6756 4.80233V9.60469C12.6756 10.9308 11.5406 12.0059 10.1405 12.0059H5.07026C3.67015 12.0059 2.53514 10.9308 2.53514 9.60469V4.80233ZM7.60538 10.205C5.85524 10.205 4.43648 8.86118 4.43648 7.20351C4.43648 5.54584 5.85524 4.20203 7.60538 4.20203C9.35551 4.20203 10.7743 5.54584 10.7743 7.20351C10.7743 8.86118 9.35551 10.205 7.60538 10.205ZM7.60538 9.00439C8.65546 9.00439 9.50672 8.19811 9.50672 7.20351C9.50672 6.20891 8.65546 5.40263 7.60538 5.40263C6.5553 5.40263 5.70404 6.20891 5.70404 7.20351C5.70404 8.19811 6.5553 9.00439 7.60538 9.00439ZM11.4081 4.20204C11.4081 4.53357 11.1243 4.80233 10.7743 4.80233C10.4243 4.80233 10.1405 4.53357 10.1405 4.20204C10.1405 3.8705 10.4243 3.60174 10.7743 3.60174C11.1243 3.60174 11.4081 3.8705 11.4081 4.20204Z" fill="black"/>
</svg>
